<?xml version="1.0" encoding="utf-8"?>
<!-- Generator: Adobe Illustrator 19.0.0, SVG Export Plug-In . SVG Version: 6.00 Build 0)  -->
<svg version="1.1" id="Camada_1" xmlns="http://www.w3.org/2000/svg" xmlns:xlink="http://www.w3.org/1999/xlink" x="0px" y="0px"
	 viewBox="0 0 100.358 19.487" style="enable-background:new 0 0 100.358 19.487;" xml:space="preserve">
<style type="text/css">
	.st0{fill-rule:evenodd;clip-rule:evenodd;fill:#CFD0D1;}
	.st1{fill-rule:evenodd;clip-rule:evenodd;fill:url(#SVGID_1_);}
	.st2{fill-rule:evenodd;clip-rule:evenodd;fill:url(#SVGID_2_);}
	.st3{fill-rule:evenodd;clip-rule:evenodd;fill:url(#SVGID_3_);}
	.st4{fill-rule:evenodd;clip-rule:evenodd;fill:#171526;}
	.st5{fill:#002E57;}
	.st6{fill:#CFD0D1;}
</style>
<g>
	<g>
		<polygon class="st0" points="6.953,9.988 13.233,19.204 16.303,19.204 9.882,10.016 16.32,0.009 13.196,0.009 		"/>
		<polygon class="st0" points="3.445,9.988 9.722,19.204 12.793,19.204 6.371,10.016 12.81,0.009 9.687,0.009 		"/>
		<polygon class="st0" points="0,9.988 6.279,19.204 9.351,19.204 2.928,10.016 9.368,0.009 6.245,0.009 		"/>
		<polygon class="st0" points="6.953,9.988 13.233,19.204 16.303,19.204 9.882,10.016 16.32,0.009 13.196,0.009 		"/>
	</g>
	<g>
		<linearGradient id="SVGID_1_" gradientUnits="userSpaceOnUse" x1="13.2412" y1="9.6065" x2="22.6076" y2="9.6065">
			<stop  offset="0" style="stop-color:#303054"/>
			<stop  offset="0.3745" style="stop-color:#323354"/>
			<stop  offset="0.8674" style="stop-color:#363B56"/>
			<stop  offset="0.9951" style="stop-color:#373E56"/>
		</linearGradient>
		<polygon class="st1" points="22.608,9.988 16.331,19.204 13.259,19.204 19.682,10.016 13.241,0.009 16.365,0.009 		"/>
		<linearGradient id="SVGID_2_" gradientUnits="userSpaceOnUse" x1="9.7323" y1="9.6065" x2="19.0983" y2="9.6065">
			<stop  offset="0" style="stop-color:#303054"/>
			<stop  offset="0.3745" style="stop-color:#323354"/>
			<stop  offset="0.8674" style="stop-color:#363B56"/>
			<stop  offset="0.9951" style="stop-color:#373E56"/>
		</linearGradient>
		<polygon class="st2" points="19.098,9.988 12.821,19.204 9.751,19.204 16.169,10.016 9.732,0.009 12.854,0.009 		"/>
		<linearGradient id="SVGID_3_" gradientUnits="userSpaceOnUse" x1="6.2911" y1="9.6065" x2="15.6564" y2="9.6065">
			<stop  offset="0" style="stop-color:#303054"/>
			<stop  offset="0.3745" style="stop-color:#323354"/>
			<stop  offset="0.8674" style="stop-color:#363B56"/>
			<stop  offset="0.9951" style="stop-color:#373E56"/>
		</linearGradient>
		<polygon class="st3" points="15.656,9.988 9.378,19.204 6.308,19.204 12.727,10.016 6.291,0.009 9.413,0.009 		"/>
	</g>
	<g>
		<polygon class="st4" points="10.581,17.437 6.423,19.037 6.308,19.204 9.378,19.204 		"/>
		<polygon class="st4" points="12.821,19.204 15.246,15.644 11.132,17.225 9.751,19.204 		"/>
		<polygon class="st4" points="15.93,15.38 13.259,19.204 16.331,19.204 20.004,13.812 		"/>
	</g>
</g>
<path class="st5" d="M23.535,6.811c-0.161-0.394-0.267-0.788-0.315-1.182c-0.049-0.394-0.073-0.853-0.073-1.377
	c0-0.524,0.03-0.987,0.089-1.389c0.059-0.401,0.172-0.788,0.339-1.159c0.167-0.371,0.396-0.679,0.687-0.924
	C24.876,0.26,25.791,0,27.008,0c0.915,0,1.694,0.025,2.335,0.074c0.641,0.05,1.376,0.147,2.205,0.293v1.251
	c-0.011,0-0.1-0.008-0.267-0.023c-0.167-0.015-0.388-0.032-0.662-0.052c-0.275-0.019-0.573-0.036-0.897-0.051
	c-0.776-0.046-1.503-0.069-2.181-0.069c-0.862,0-1.433,0.205-1.713,0.614c-0.28,0.41-0.42,1.161-0.42,2.255
	c0,1.094,0.129,1.825,0.388,2.192c0.269,0.375,0.818,0.562,1.648,0.562c0.323,0,0.654-0.044,0.993-0.132
	c0.339-0.088,0.595-0.174,0.768-0.258l0.259-0.138V5.015h-1.648V3.993c0.635-0.183,1.572-0.275,2.811-0.275
	c0.345,0,0.711,0.008,1.099,0.023v4.751H30.11L29.496,7.93c-0.377,0.252-0.781,0.417-1.212,0.493
	c-1.174,0.206-2.165,0.183-2.973-0.069c-0.474-0.145-0.848-0.34-1.123-0.585C23.914,7.524,23.696,7.205,23.535,6.811z"/>
<path class="st5" d="M38.383,0.092c1.034,0,1.804,0.187,2.31,0.562c0.614,0.444,0.921,1.128,0.921,2.054
	c0,1.079-0.318,1.794-0.953,2.146c-0.205,0.114-0.361,0.187-0.469,0.218c-0.108,0.031-0.264,0.069-0.469,0.115l2.246,3.305h-2.553
	l-1.955-3.179l-1.987-0.161v3.339h-2.262v-8.4H38.383z M35.491,3.89h2.682c0.42,0,0.719-0.076,0.897-0.229
	c0.178-0.153,0.267-0.463,0.267-0.93c0-0.466-0.097-0.786-0.291-0.958c-0.194-0.172-0.485-0.258-0.872-0.258h-2.682V3.89z"/>
<path class="st5" d="M47.737,8.549h-0.226c-1.292,0-2.154-0.095-2.585-0.287c-0.194-0.092-0.42-0.228-0.679-0.407
	c-0.259-0.18-0.452-0.4-0.582-0.66c-0.323-0.643-0.485-1.435-0.485-2.375V0.092h2.262V4.82c0,0.734,0.102,1.274,0.307,1.618
	c0.183,0.306,0.544,0.501,1.082,0.585c0.237,0.031,0.579,0.046,1.026,0.046c0.447,0,0.821-0.058,1.123-0.172
	c0.635-0.245,0.953-0.937,0.953-2.077V0.092h2.278V4.82c0,1.201-0.248,2.073-0.743,2.617c-0.162,0.191-0.321,0.346-0.477,0.464
	c-0.156,0.119-0.356,0.222-0.598,0.31c-0.242,0.088-0.45,0.153-0.622,0.195C49.6,8.448,49.369,8.48,49.078,8.503
	C48.712,8.534,48.265,8.549,47.737,8.549z"/>
<path class="st5" d="M53.747,8.492v-8.4h5.089c1.174,0,2.025,0.233,2.553,0.7c0.485,0.421,0.727,1.052,0.727,1.893
	c0,0.49-0.073,0.911-0.218,1.262c-0.145,0.352-0.323,0.622-0.533,0.809c-0.21,0.187-0.476,0.331-0.8,0.43
	c-0.42,0.138-0.889,0.207-1.406,0.207c-0.377,0-0.986-0.035-1.826-0.104c-0.84-0.069-1.282-0.111-1.325-0.126v3.328H53.747z
	 M58.659,1.515h-2.65V3.97h2.65c0.258,0,0.468-0.034,0.63-0.103c0.366-0.153,0.549-0.543,0.549-1.171
	C59.827,1.909,59.434,1.515,58.659,1.515z"/>
<path class="st5" d="M63.4,6.415c-0.081-0.268-0.143-0.574-0.186-0.918c-0.043-0.344-0.065-0.759-0.065-1.245
	c0-0.486,0.04-0.945,0.121-1.377c0.081-0.432,0.191-0.799,0.331-1.102c0.14-0.302,0.328-0.56,0.565-0.774
	c0.237-0.214,0.477-0.383,0.719-0.505c0.242-0.122,0.541-0.218,0.897-0.287c0.56-0.115,1.15-0.172,1.769-0.172
	c0.619,0,1.072,0.008,1.357,0.023c0.285,0.015,0.587,0.048,0.905,0.098c0.318,0.05,0.59,0.12,0.816,0.212
	c0.226,0.092,0.455,0.209,0.687,0.35c0.232,0.142,0.423,0.321,0.574,0.539c0.151,0.218,0.285,0.469,0.404,0.752
	c0.237,0.566,0.356,1.228,0.356,1.985c0,0.757-0.04,1.341-0.121,1.75c-0.081,0.409-0.186,0.761-0.315,1.056
	c-0.129,0.294-0.304,0.547-0.525,0.757c-0.221,0.21-0.452,0.378-0.695,0.505c-0.242,0.126-0.536,0.223-0.88,0.292
	c-0.797,0.168-1.847,0.222-3.151,0.161c-0.668-0.023-1.153-0.08-1.454-0.172c-0.302-0.092-0.563-0.19-0.784-0.292
	c-0.221-0.104-0.407-0.229-0.557-0.379c-0.151-0.149-0.296-0.329-0.436-0.539C63.591,6.922,63.481,6.683,63.4,6.415z M65.589,2.622
	c-0.054,0.203-0.097,0.446-0.129,0.729c-0.032,0.283-0.048,0.639-0.048,1.067c0,0.428,0.021,0.794,0.065,1.096
	c0.043,0.302,0.116,0.56,0.218,0.774c0.102,0.214,0.256,0.375,0.46,0.482c0.366,0.191,0.948,0.287,1.745,0.287
	c0.754,0,1.319-0.099,1.697-0.298c0.528-0.283,0.792-1.086,0.792-2.41c0-0.895-0.067-1.488-0.202-1.779
	c-0.135-0.291-0.259-0.497-0.372-0.62c-0.113-0.122-0.272-0.218-0.477-0.287c-0.334-0.099-0.727-0.149-1.18-0.149
	c-0.452,0-0.767,0.005-0.945,0.017c-0.178,0.012-0.366,0.037-0.565,0.075c-0.199,0.038-0.356,0.098-0.469,0.178
	c-0.113,0.081-0.226,0.189-0.339,0.327C65.727,2.249,65.643,2.419,65.589,2.622z"/>
<path class="st6" d="M23.147,19.395v-8.4h5.025c2.736,0,4.104,1.412,4.104,4.235c0,1.744-0.587,2.953-1.761,3.626
	c-0.625,0.36-1.405,0.539-2.343,0.539H23.147z M30.013,15.218c0-1.392-0.313-2.253-0.937-2.582c-0.28-0.145-0.641-0.218-1.082-0.218
	h-2.585v5.543h2.585C29.34,17.96,30.013,17.046,30.013,15.218z"/>
<path class="st6" d="M33.842,19.395v-8.4h2.262v8.4H33.842z"/>
<path class="st6" d="M37.494,19.395l1.034-8.4h3.15l1.971,5.738l1.955-5.738h3.134l1.099,8.4h-2.229l-0.776-5.612l-1.906,5.612
	h-2.52l-1.987-5.612l-0.695,5.612H37.494z"/>
<path class="st6" d="M51.986,11.304c0.269-0.114,0.536-0.195,0.8-0.241c0.264-0.046,0.474-0.069,0.63-0.069
	c0.156,0,0.934,0.014,2.335,0.04c1.4,0.027,2.445,0.074,3.134,0.143v1.331h-4.669c-0.399,0-0.646,0.069-0.743,0.207
	c-0.064,0.107-0.097,0.252-0.097,0.436v1.308l4.782,0.115v1.331l-4.782,0.104v1.308c0,0.291,0.113,0.466,0.339,0.528
	c0.161,0.046,0.382,0.069,0.662,0.069h4.508v1.32c-0.539,0.054-1.869,0.107-3.991,0.161l-1.05,0.034c-0.087,0-0.186,0-0.299,0
	c-0.113,0-0.261-0.005-0.444-0.017c-0.183-0.012-0.404-0.051-0.662-0.12c-0.259-0.069-0.485-0.161-0.678-0.275
	c-0.431-0.275-0.646-0.7-0.646-1.274v-5.003C51.114,12.043,51.404,11.565,51.986,11.304z"/>
<path class="st6" d="M60.322,19.395v-8.4h2.294l4.685,5.428v-5.428h2.262v8.4h-2.262L62.6,14.024v5.371H60.322z"/>
<path class="st6" d="M71.099,13.818v-0.723c0-0.803,0.307-1.373,0.921-1.71c0.56-0.298,1.319-0.451,2.278-0.459
	c0.129,0,0.401,0,0.816,0c0.414,0,1.023,0.031,1.826,0.092c0.802,0.061,1.446,0.141,1.931,0.241v1.262
	c-1.228-0.077-2.205-0.115-2.932-0.115c-0.727,0-1.118,0-1.171,0c-0.485,0-0.84,0.046-1.066,0.138
	c-0.226,0.092-0.339,0.318-0.339,0.677v0.413c0,0.322,0.091,0.536,0.275,0.643c0.183,0.107,0.512,0.161,0.986,0.161h1.874
	c1.228,0,2.052,0.348,2.472,1.044c0.216,0.352,0.323,0.746,0.323,1.182v0.562c0,1.025-0.48,1.695-1.438,2.008
	c-0.496,0.168-1.104,0.252-1.826,0.252c-1.949,0-3.474-0.115-4.572-0.344V17.88c1.185,0.084,2.219,0.126,3.102,0.126
	c0.883,0,1.398-0.008,1.543-0.023c0.146-0.015,0.294-0.046,0.444-0.092c0.323-0.1,0.485-0.302,0.485-0.608v-0.448
	c0-0.397-0.178-0.643-0.533-0.734c-0.14-0.038-0.318-0.057-0.533-0.057h-1.81C72.116,16.044,71.099,15.302,71.099,13.818z"/>
<path class="st6" d="M79.888,19.395l3.991-8.4h2.569l3.845,8.4h-2.407l-0.84-1.859h-3.878l-0.856,1.859H79.888z M86.124,9.216
	c0.409,0,0.883-0.145,1.422-0.436l0.388,0.689c-0.668,0.52-1.271,0.78-1.809,0.78c-0.269,0-0.593-0.067-0.97-0.201
	c-0.377-0.134-0.638-0.201-0.783-0.201c-0.146,0-0.272,0.006-0.38,0.017c-0.108,0.011-0.194,0.023-0.259,0.034
	c-0.064,0.012-0.148,0.035-0.25,0.069c-0.102,0.035-0.172,0.059-0.21,0.074c-0.038,0.016-0.119,0.05-0.242,0.104
	c-0.124,0.053-0.208,0.088-0.251,0.103l-0.388-0.631c0.689-0.535,1.341-0.803,1.955-0.803c0.259,0.008,0.565,0.077,0.921,0.206
	c0.355,0.13,0.582,0.195,0.678,0.195C86.043,9.216,86.102,9.216,86.124,9.216z M83.765,16.113h2.747l-1.325-3.007L83.765,16.113z"/>
<path class="st6" d="M91.108,17.318c-0.081-0.268-0.143-0.574-0.186-0.918c-0.043-0.344-0.064-0.759-0.064-1.245
	c0-0.486,0.04-0.945,0.121-1.377c0.081-0.432,0.191-0.799,0.331-1.102c0.14-0.302,0.328-0.56,0.565-0.774
	c0.237-0.214,0.477-0.383,0.719-0.505c0.242-0.122,0.541-0.218,0.897-0.287c0.56-0.115,1.15-0.172,1.769-0.172
	c0.619,0,1.072,0.008,1.357,0.023c0.285,0.015,0.587,0.048,0.905,0.098c0.318,0.05,0.59,0.12,0.816,0.212
	c0.226,0.092,0.455,0.209,0.687,0.35c0.231,0.142,0.423,0.321,0.573,0.539c0.151,0.218,0.285,0.469,0.404,0.752
	c0.237,0.566,0.355,1.228,0.355,1.985c0,0.757-0.041,1.341-0.121,1.75c-0.081,0.409-0.186,0.761-0.315,1.056
	c-0.129,0.294-0.305,0.547-0.525,0.757c-0.221,0.21-0.452,0.378-0.695,0.505c-0.242,0.126-0.536,0.223-0.881,0.292
	c-0.797,0.168-1.847,0.222-3.15,0.161c-0.668-0.023-1.153-0.08-1.454-0.172c-0.302-0.092-0.563-0.19-0.784-0.292
	c-0.221-0.104-0.407-0.229-0.557-0.379c-0.151-0.149-0.296-0.329-0.436-0.539C91.299,17.825,91.189,17.586,91.108,17.318z
	 M93.297,13.525c-0.054,0.203-0.097,0.446-0.129,0.729c-0.032,0.283-0.048,0.639-0.048,1.067c0,0.428,0.021,0.794,0.064,1.096
	c0.043,0.302,0.116,0.56,0.218,0.774c0.102,0.214,0.256,0.375,0.46,0.482c0.366,0.191,0.948,0.287,1.745,0.287
	c0.754,0,1.319-0.099,1.696-0.298c0.528-0.283,0.792-1.086,0.792-2.41c0-0.895-0.067-1.488-0.202-1.779
	c-0.135-0.291-0.259-0.497-0.371-0.62c-0.113-0.122-0.272-0.218-0.477-0.287c-0.334-0.099-0.727-0.149-1.179-0.149
	c-0.452,0-0.767,0.005-0.945,0.017c-0.178,0.012-0.366,0.037-0.565,0.075c-0.199,0.038-0.355,0.098-0.469,0.178
	c-0.113,0.081-0.226,0.189-0.339,0.327C93.435,13.152,93.351,13.322,93.297,13.525z"/>
</svg>
